# xmcd CD database file
#
# Track frame offsets:
#	150
#	34872
#	63959
#	99054
#	125474
#	166770
#	196210
#	229420
#	254194
#
# Disc length: 3940 seconds
#
# Revision: 3
# Processed by: cddbd v1.5.1PL2 Copyright (c) Steve Scherf et al.
# Submitted via: CDex 1.51
#
DISCID=740f6209
DTITLE=Dave Brubeck - Take five (Quadromenia) CD 2
DYEAR=1900
DGENRE=Jazz
TTITLE0=The way you look tonight
TTITLE1=Stardust
TTITLE2=Perdido
TTITLE3=For all we know
TTITLE4=All the things you are
TTITLE5=These foolish things
TTITLE6=Lullaby in rhythm
TTITLE7=I'll never smile again
TTITLE8=I remember you
EXTD=
EXTT0=
EXTT1=
EXTT2=
EXTT3=
EXTT4=
EXTT5=
EXTT6=
EXTT7=
EXTT8=
PLAYORDER=
